<?xml version="1.0" encoding="UTF-8"?>
<svg width="1214px" height="941px" viewBox="0 0 1214 941" version="1.1" xmlns="http://www.w3.org/2000/svg" xmlns:xlink="http://www.w3.org/1999/xlink">
    <!-- Generator: Sketch 46.2 (44496) - http://www.bohemiancoding.com/sketch -->
    <title>1 panel_example_2</title>
    <desc>Created with Sketch.</desc>
    <defs></defs>
    <g id="Page-1" stroke="none" stroke-width="1" fill="none" fill-rule="evenodd">
        <g id="1-panel_example_2">
            <polygon id="Page-1" fill="#204056" points="0 941 1214 941 1214 0 0 0"></polygon>
            <g id="noun_49525_cc" transform="translate(520.000000, 239.000000)" fill-rule="nonzero" fill="#7A98A9">
                <path d="M38.8084291,444.387311 C38.8084291,457.447739 45.2541507,463.991181 58.1545338,463.991181 C71.0906769,463.991181 77.5542784,457.447739 77.5542784,444.387311 L77.5542784,267.873105 L97.4278416,267.873105 L97.4278416,444.396129 C97.4278416,457.456558 103.909323,464 116.827586,464 C129.745849,464 136.227331,457.456558 136.227331,444.396129 L136.227331,143.679982 L145.676884,143.679982 L145.676884,251.999525 C145.676884,258.851621 148.054917,263.834161 152.784163,266.938328 C157.49553,270.051313 162.367816,270.051313 167.454662,266.938328 C172.487867,263.834161 175,258.851621 175,251.999525 L175,135.266985 C175,122.815043 170.717752,113.176253 162.233716,106.324158 C153.731801,99.4720625 141.913155,96.0327869 126.768838,96.0327869 L49.1877395,96.0327869 C34.6781609,96.0327869 22.8773946,99.1545909 13.7407407,105.380562 C4.59514687,111.606532 0,121.254141 0,134.341026 L0,258.542968 C0,264.133995 2.53001277,268.181758 7.58109834,270.668619 C12.6232439,273.164298 17.51341,273.164298 22.2337165,270.668619 C26.945083,268.181758 29.3409962,264.133995 29.3409962,258.542968 L29.3409962,143.679982 L38.8263091,143.679982 L38.8263091,444.387311 L38.8084291,444.387311 Z" id="Shape"></path>
                <path d="M43.75,39.4546335 C43.75,50.2978643 47.6030971,59.5720261 55.3356223,67.3034162 C63.1032554,75.0348062 72.3717533,78.9180328 83.1937777,78.9180328 C94.0596871,78.9180328 103.319408,75.0348062 111.104595,67.3034162 C118.819566,59.5807918 122.690217,50.1313151 122.690217,38.9812831 C122.690217,28.4799165 118.819566,19.337241 111.104595,11.6146166 C103.319408,3.88322654 94.0684641,0 83.1937777,0 C72.3805303,0 63.1032554,3.88322654 55.3356223,11.6146166 C47.6118741,19.337241 43.75,28.6289343 43.75,39.4546335 Z" id="Shape"></path>
            </g>
            <circle id="Oval" stroke="#FFFFFF" stroke-width="2" cx="607" cy="471" r="305"></circle>
            <rect id="Rectangle" fill="#204056" x="271" y="443" width="66" height="13"></rect>
            <rect id="Rectangle-Copy-2" fill="#204056" x="601" y="748" width="13" height="57"></rect>
            <rect id="Rectangle-Copy-3" fill="#204056" x="601" y="140" width="13" height="57"></rect>
            <rect id="Rectangle-Copy" fill="#204056" x="879" y="443" width="66" height="13"></rect>
            <text id="Research" font-family="Oxygen-Light, Oxygen" font-size="34.65" font-weight="300" letter-spacing="0.0399999991" fill="#52B1DB">
                <tspan x="125" y="471">Research</tspan>
            </text>
            <text id="Users-and-their-need" font-family="Oxygen-Light, Oxygen" font-size="20" font-weight="300" letter-spacing="0.0230880231" fill="#FFFFFF">
                <tspan x="96.8698804" y="510">Users and their needs</tspan>
            </text>
            <text id="Product-specificatio" font-family="Oxygen-Light, Oxygen" font-size="20" font-weight="300" letter-spacing="0.0230880231" fill="#FFFFFF">
                <tspan x="407" y="135">Product specifications based on user research</tspan>
            </text>
            <text id="Build-product-to-mee" font-family="Oxygen-Light, Oxygen" font-size="20" font-weight="300" letter-spacing="0.0230880231" fill="#FFFFFF">
                <tspan x="941" y="492">Build product to </tspan>
                <tspan x="941" y="518">meet specifications</tspan>
            </text>
            <text id="Evaluate-product-bas" font-family="Oxygen-Light, Oxygen" font-size="20" font-weight="300" letter-spacing="0.0230880231" fill="#FFFFFF">
                <tspan x="446" y="880">Evaluate product based on feedback</tspan>
            </text>
            <text id="Test" font-family="Oxygen-Light, Oxygen" font-size="34.65" font-weight="300" letter-spacing="0.0399999991" fill="#52B1DB">
                <tspan x="573" y="837">Test</tspan>
            </text>
            <text id="Define" font-family="Oxygen-Light, Oxygen" font-size="34.65" font-weight="300" letter-spacing="0.0399999991" fill="#52B1DB">
                <tspan x="554" y="93">Define</tspan>
            </text>
            <text id="Develop" font-family="Oxygen-Light, Oxygen" font-size="34.65" font-weight="300" letter-spacing="0.0399999991" fill="#52B1DB">
                <tspan x="941" y="460">Develop</tspan>
            </text>
            <path d="M289.066883,482.131129 C288.536845,482.072236 288.0657,482.455041 288.006807,482.98508 C287.943707,483.515118 288.326512,483.986263 288.85655,484.045156 L315.93477,486.994019 C316.464808,487.052912 316.94016,486.670107 316.999053,486.144275 L319.947916,459.066056 C320.002602,458.540224 319.624004,458.060666 319.093965,458.00598 C318.563927,457.947086 318.088576,458.329892 318.033889,458.85993 L315.185986,484.991653 L289.066883,482.131129 Z" id="Stroke-27" stroke="#FFFFFF" stroke-width="0.5" fill="#FFFFFF" transform="translate(303.976583, 472.500000) rotate(-143.000000) translate(-303.976583, -472.500000) "></path>
            <path d="M897.576084,436.826292 C897.046046,436.767399 896.574901,437.150204 896.516008,437.680242 C896.452908,438.21028 896.835714,438.681425 897.365752,438.740318 L924.443971,441.689182 C924.974009,441.748075 925.449361,441.365269 925.508254,440.839438 L928.457117,413.761218 C928.511804,413.235387 928.133205,412.755829 927.603167,412.701142 C927.073129,412.642249 926.597777,413.025054 926.543091,413.555092 L923.695187,439.686815 L897.576084,436.826292 Z" id="Stroke-27" stroke="#FFFFFF" stroke-width="0.5" fill="#FFFFFF" transform="translate(912.485784, 427.195162) scale(1, -1) rotate(-143.000000) translate(-912.485784, -427.195162) "></path>
            <path d="M615.640499,786.181328 C615.11046,786.122434 614.639315,786.50524 614.580422,787.035278 C614.517322,787.565316 614.900128,788.036461 615.430166,788.095354 L642.508385,791.044217 C643.038424,791.103111 643.513775,790.720305 643.572668,790.194474 L646.521531,763.116254 C646.576218,762.590423 646.197619,762.110864 645.667581,762.056178 C645.137543,761.997285 644.662191,762.38009 644.607505,762.910128 L641.759601,789.041851 L615.640499,786.181328 Z" id="Stroke-27-Copy" stroke="#FFFFFF" stroke-width="0.5" fill="#FFFFFF" transform="translate(630.550198, 776.550198) rotate(-225.000000) translate(-630.550198, -776.550198) "></path>
            <path d="M569.640499,175.181328 C569.11046,175.122434 568.639315,175.50524 568.580422,176.035278 C568.517322,176.565316 568.900128,177.036461 569.430166,177.095354 L596.508385,180.044217 C597.038424,180.103111 597.513775,179.720305 597.572668,179.194474 L600.521531,152.116254 C600.576218,151.590423 600.197619,151.110864 599.667581,151.056178 C599.137543,150.997285 598.662191,151.38009 598.607505,151.910128 L595.759601,178.041851 L569.640499,175.181328 Z" id="Stroke-27-Copy" stroke="#FFFFFF" stroke-width="0.5" fill="#FFFFFF" transform="translate(584.550198, 165.550198) scale(-1, -1) rotate(-225.000000) translate(-584.550198, -165.550198) "></path>
            <path d="M625.620358,292.452344 C625.034263,291.865058 624.056441,291.853194 623.374657,292.395988 C612.792055,301.254214 595.210701,301.255697 584.625109,292.397471 C583.94482,291.853194 582.965503,291.866541 582.379408,292.453827 L582.379408,292.453827 C581.794808,293.041113 581.887507,294.037719 582.645543,294.64725 C594.249326,304.451658 613.75044,304.450175 625.351233,294.64725 C626.113754,294.036236 626.204958,293.041113 625.620358,292.452344 L625.620358,292.452344 Z" id="Shape" fill="#204056" fill-rule="nonzero"></path>
            <path d="M594.358784,276.737547 C593.687857,277.206238 592.772688,277.029543 592.313633,276.348219 L586.25763,267.344261 C585.798574,266.662937 585.969249,265.731545 586.640176,265.262854 L586.640176,265.262854 C587.311104,264.794163 588.226272,264.96936 588.685328,265.652182 L594.741331,274.65614 C595.201858,275.337464 595.031183,276.270354 594.358784,276.737547 L594.358784,276.737547 Z" id="Shape" fill="#204056" fill-rule="nonzero"></path>
            <path d="M588.359383,265.262486 C587.689879,264.793736 586.773174,264.970453 586.314085,265.651862 L580.257648,274.655447 C579.79856,275.336856 579.969247,276.268364 580.640222,276.737114 L580.640222,276.737114 C581.311198,277.205863 582.226432,277.030644 582.68552,276.347737 L588.741957,267.342655 C589.201046,266.662744 589.03183,265.729738 588.359383,265.262486 L588.359383,265.262486 Z" id="Shape" fill="#204056" fill-rule="nonzero"></path>
            <path d="M626.359821,275.737547 C625.68889,276.206238 624.773717,276.029543 624.313188,275.348219 L618.257157,266.344261 C617.7981,265.662937 617.970246,264.731545 618.641177,264.262854 L618.641177,264.262854 C619.312107,263.794163 620.22728,263.96936 620.686338,264.652182 L626.742369,273.65614 C627.201427,274.337464 627.030751,275.270354 626.359821,275.737547 L626.359821,275.737547 Z" id="Shape" fill="#204056" fill-rule="nonzero"></path>
            <path d="M620.359023,264.262453 C619.68951,263.793762 618.772792,263.970457 618.313697,264.651781 L612.257178,273.655739 C611.798083,274.337063 611.970244,275.268455 612.641228,275.737146 L612.641228,275.737146 C613.312213,276.205837 614.22746,276.03064 614.686554,275.347818 L620.743074,266.34386 C621.200697,265.662536 621.031479,264.729646 620.359023,264.262453 L620.359023,264.262453 Z" id="Shape" fill="#204056" fill-rule="nonzero"></path>
        </g>
    </g>
</svg>